<svg xmlns="http://www.w3.org/2000/svg" xmlns:xlink="http://www.w3.org/1999/xlink" contentStyleType="text/css" data-diagram-type="DESCRIPTION" height="2653.125px" preserveAspectRatio="none" style="width:6645px;height:2653px;background:#FFFFFF;" version="1.1" viewBox="0 0 6645 2653" width="6645px" zoomAndPan="magnify"><?plantuml 1.2026.4?><defs /><g><g class="title" data-source-line="54"><text fill="#000000" font-family="'Times New Roman'" font-size="75" font-weight="700" lengthAdjust="spacing" textLength="1909.1308" x="2367.9346" y="72">Структурная схема веб-приложения интернет-магазина</text></g><!--cluster Browser--><g class="cluster" data-qualified-name="Browser" data-source-line="61" id="ent0003"><rect fill="#FFFFFF" height="1488.75" rx="4.6875" ry="4.6875" style="stroke:#000000;stroke-width:3.75;" width="3240" x="729.375" y="117.6672" /><text fill="#000000" font-family="'Times New Roman'" font-size="41.25" font-weight="700" lengthAdjust="spacing" textLength="413.0841" x="2142.8329" y="159.928">Браузер пользователя</text></g><!--cluster PublicUi--><g class="cluster" data-qualified-name="Browser.PublicUi" data-source-line="66" id="ent0007"><rect fill="#FFFFFF" height="545.625" rx="4.6875" ry="4.6875" style="stroke:#000000;stroke-width:3.75;" width="1286.25" x="2328.75" y="1000.7922" /><text fill="#000000" font-family="'Times New Roman'" font-size="41.25" font-weight="700" lengthAdjust="spacing" textLength="559.1913" x="2692.2794" y="1043.053">Пользовательский интерфейс</text></g><!--cluster AdminUi--><g class="cluster" data-qualified-name="Browser.AdminUi" data-source-line="73" id="ent0012"><rect fill="#FFFFFF" height="545.625" rx="4.6875" ry="4.6875" style="stroke:#000000;stroke-width:3.75;" width="1230.9375" x="2360.625" y="230.1672" /><text fill="#000000" font-family="'Times New Roman'" font-size="41.25" font-weight="700" lengthAdjust="spacing" textLength="586.5234" x="2682.832" y="272.428">Административный интерфейс</text></g><!--cluster Server--><g class="cluster" data-qualified-name="Server" data-source-line="84" id="ent0019"><rect fill="#FFFFFF" height="1635" rx="4.6875" ry="4.6875" style="stroke:#000000;stroke-width:3.75;" width="2201.25" x="4040.625" y="511.4172" /><text fill="#000000" font-family="'Times New Roman'" font-size="41.25" font-weight="700" lengthAdjust="spacing" textLength="435.8844" x="4923.3078" y="553.678">Серверное приложение</text><text fill="#000000" font-family="'Times New Roman'" font-size="41.25" font-weight="700" lengthAdjust="spacing" textLength="362.6697" x="4959.9152" y="601.1115">NestJS + TypeScript</text></g><!--cluster FeatureModules--><g class="cluster" data-qualified-name="Server.FeatureModules" data-source-line="87" id="ent0021"><rect fill="#FFFFFF" height="1265.625" rx="4.6875" ry="4.6875" style="stroke:#000000;stroke-width:3.75;" width="1235.625" x="4633.125" y="820.7922" /><text fill="#000000" font-family="'Times New Roman'" font-size="41.25" font-weight="700" lengthAdjust="spacing" textLength="482.8143" x="5009.5303" y="863.053">Функциональные модули</text></g><!--entity BuyerAccess--><g class="entity" data-qualified-name="Browser.BuyerAccess" data-source-line="62" id="ent0004"><rect fill="#FFFFFF" height="84.9335" rx="4.6875" ry="4.6875" style="stroke:#000000;stroke-width:3.75;" width="337.207" x="801.5625" y="699.8547" /><text fill="#000000" font-family="'Times New Roman'" font-size="41.25" lengthAdjust="spacing" textLength="299.707" x="820.3125" y="757.1155">Вход покупателя</text></g><!--entity AdminAccess--><g class="entity" data-qualified-name="Browser.AdminAccess" data-source-line="63" id="ent0005"><rect fill="#FFFFFF" height="84.9335" rx="4.6875" ry="4.6875" style="stroke:#000000;stroke-width:3.75;" width="422.0435" x="759.375" y="1044.8547" /><text fill="#000000" font-family="'Times New Roman'" font-size="41.25" lengthAdjust="spacing" textLength="384.5435" x="778.125" y="1102.1155">Вход администратора</text></g><!--entity Client--><g class="entity" data-qualified-name="Browser.Client" data-source-line="64" id="ent0006"><rect fill="#FFFFFF" height="132.3669" rx="4.6875" ry="4.6875" style="stroke:#000000;stroke-width:3.75;" width="473.4851" x="1312.5" y="847.9797" /><text fill="#000000" font-family="'Times New Roman'" font-size="41.25" lengthAdjust="spacing" textLength="431.4331" x="1331.25" y="905.2405">Клиентское приложение</text><text fill="#000000" font-family="'Times New Roman'" font-size="41.25" lengthAdjust="spacing" textLength="435.9851" x="1331.25" y="952.674">React + Vite + TypeScript</text></g><!--entity Router--><g class="entity" data-qualified-name="Browser.Router" data-source-line="79" id="ent0016"><rect fill="#FFFFFF" height="132.3669" rx="4.6875" ry="4.6875" style="stroke:#000000;stroke-width:3.75;" width="323.9539" x="1918.125" y="847.9797" /><text fill="#000000" font-family="'Times New Roman'" font-size="41.25" lengthAdjust="spacing" textLength="286.4539" x="1936.875" y="905.2405">Маршрутизация</text><text fill="#000000" font-family="'Times New Roman'" font-size="41.25" lengthAdjust="spacing" textLength="216.4819" x="1936.875" y="952.674">React Router</text></g><!--entity State--><g class="entity" data-qualified-name="Browser.State" data-source-line="80" id="ent0017"><rect fill="#FFFFFF" height="132.3669" rx="4.6875" ry="4.6875" style="stroke:#000000;stroke-width:3.75;" width="410.6836" x="3083.4375" y="821.7297" /><text fill="#000000" font-family="'Times New Roman'" font-size="41.25" lengthAdjust="spacing" textLength="373.1836" x="3102.1875" y="878.9905">Состояние и запросы</text><text fill="#000000" font-family="'Times New Roman'" font-size="41.25" lengthAdjust="spacing" textLength="360.8167" x="3102.1875" y="926.424">React Query, Zustand</text></g><!--entity ApiClient--><g class="entity" data-qualified-name="Browser.ApiClient" data-source-line="81" id="ent0018"><rect fill="#FFFFFF" height="84.9335" rx="4.6875" ry="4.6875" style="stroke:#000000;stroke-width:3.75;" width="238.8153" x="3701.25" y="846.1047" /><text fill="#000000" font-family="'Times New Roman'" font-size="41.25" lengthAdjust="spacing" textLength="201.3153" x="3720" y="903.3655">API-клиент</text></g><!--entity HomePage--><g class="entity" data-qualified-name="Browser.PublicUi.HomePage" data-source-line="67" id="ent0008"><rect fill="#FFFFFF" height="84.9335" rx="4.6875" ry="4.6875" style="stroke:#000000;stroke-width:3.75;" width="349.1913" x="2450.625" y="1416.1047" /><text fill="#000000" font-family="'Times New Roman'" font-size="41.25" lengthAdjust="spacing" textLength="311.6913" x="2469.375" y="1473.3655">Главная страница</text></g><!--entity CatalogPages--><g class="entity" data-qualified-name="Browser.PublicUi.CatalogPages" data-source-line="68" id="ent0009"><rect fill="#FFFFFF" height="84.9335" rx="4.6875" ry="4.6875" style="stroke:#000000;stroke-width:3.75;" width="502.8918" x="2373.75" y="1200.4797" /><text fill="#000000" font-family="'Times New Roman'" font-size="41.25" lengthAdjust="spacing" textLength="465.3918" x="2392.5" y="1257.7405">Каталог и карточка товара</text></g><!--entity CheckoutPages--><g class="entity" data-qualified-name="Browser.PublicUi.CheckoutPages" data-source-line="69" id="ent0010"><rect fill="#FFFFFF" height="84.9335" rx="4.6875" ry="4.6875" style="stroke:#000000;stroke-width:3.75;" width="561.6449" x="3007.5" y="1416.1047" /><text fill="#000000" font-family="'Times New Roman'" font-size="41.25" lengthAdjust="spacing" textLength="524.1449" x="3026.25" y="1473.3655">Корзина и оформление заказа</text></g><!--entity AccountPages--><g class="entity" data-qualified-name="Browser.PublicUi.AccountPages" data-source-line="70" id="ent0011"><rect fill="#FFFFFF" height="84.9335" rx="4.6875" ry="4.6875" style="stroke:#000000;stroke-width:3.75;" width="330.2985" x="3123.75" y="1200.4797" /><text fill="#000000" font-family="'Times New Roman'" font-size="41.25" lengthAdjust="spacing" textLength="292.7985" x="3142.5" y="1257.7405">Личный кабинет</text></g><!--entity CatalogAdmin--><g class="entity" data-qualified-name="Browser.AdminUi.CatalogAdmin" data-source-line="74" id="ent0013"><rect fill="#FFFFFF" height="84.9335" rx="4.6875" ry="4.6875" style="stroke:#000000;stroke-width:3.75;" width="438.3984" x="2405.625" y="544.2297" /><text fill="#000000" font-family="'Times New Roman'" font-size="41.25" lengthAdjust="spacing" textLength="400.8984" x="2424.375" y="601.4905">Управление каталогом</text></g><!--entity OrderAdmin--><g class="entity" data-qualified-name="Browser.AdminUi.OrderAdmin" data-source-line="75" id="ent0014"><rect fill="#FFFFFF" height="84.9335" rx="4.6875" ry="4.6875" style="stroke:#000000;stroke-width:3.75;" width="414.5911" x="2417.8125" y="328.6047" /><text fill="#000000" font-family="'Times New Roman'" font-size="41.25" lengthAdjust="spacing" textLength="377.0911" x="2436.5625" y="385.8655">Управление заказами</text></g><!--entity UserAdmin--><g class="entity" data-qualified-name="Browser.AdminUi.UserAdmin" data-source-line="76" id="ent0015"><rect fill="#FFFFFF" height="84.9335" rx="4.6875" ry="4.6875" style="stroke:#000000;stroke-width:3.75;" width="515.2185" x="3030.9375" y="544.2297" /><text fill="#000000" font-family="'Times New Roman'" font-size="41.25" lengthAdjust="spacing" textLength="477.7185" x="3049.6875" y="601.4905">Пользователи и статистика</text></g><!--entity RestApi--><g class="entity" data-qualified-name="Server.RestApi" data-source-line="85" id="ent0020"><rect fill="#FFFFFF" height="132.3669" rx="4.6875" ry="4.6875" style="stroke:#000000;stroke-width:3.75;" width="476.1841" x="4070.625" y="821.7297" /><text fill="#000000" font-family="'Times New Roman'" font-size="41.25" lengthAdjust="spacing" textLength="177.6288" x="4089.375" y="878.9905">REST API</text><text fill="#000000" font-family="'Times New Roman'" font-size="41.25" lengthAdjust="spacing" textLength="438.6841" x="4089.375" y="926.424">и Swagger-документация</text></g><!--entity DataAccess--><g class="entity" data-qualified-name="Server.DataAccess" data-source-line="96" id="ent0028"><rect fill="#FFFFFF" height="132.3669" rx="4.6875" ry="4.6875" style="stroke:#000000;stroke-width:3.75;" width="455.4987" x="5326.875" y="641.7297" /><text fill="#000000" font-family="'Times New Roman'" font-size="41.25" lengthAdjust="spacing" textLength="417.9987" x="5345.625" y="698.9905">Слой доступа к данным</text><text fill="#000000" font-family="'Times New Roman'" font-size="41.25" lengthAdjust="spacing" textLength="238.2751" x="5345.625" y="746.424">PrismaService</text></g><!--entity PrismaOrm--><g class="entity" data-qualified-name="Server.PrismaOrm" data-source-line="97" id="ent0029"><rect fill="#FFFFFF" height="84.9335" rx="4.6875" ry="4.6875" style="stroke:#000000;stroke-width:3.75;" width="256.3788" x="5955" y="666.1047" /><text fill="#000000" font-family="'Times New Roman'" font-size="41.25" lengthAdjust="spacing" textLength="218.8788" x="5973.75" y="723.3655">Prisma ORM</text></g><!--entity AuthModule--><g class="entity" data-qualified-name="Server.FeatureModules.AuthModule" data-source-line="88" id="ent0022"><rect fill="#FFFFFF" height="132.3669" rx="4.6875" ry="4.6875" style="stroke:#000000;stroke-width:3.75;" width="406.0913" x="4712.8125" y="1642.9797" /><text fill="#000000" font-family="'Times New Roman'" font-size="41.25" lengthAdjust="spacing" textLength="368.5913" x="4731.5625" y="1700.2405">Модуль авторизации</text><text fill="#000000" font-family="'Times New Roman'" font-size="41.25" lengthAdjust="spacing" textLength="197.0654" x="4731.5625" y="1747.674">Auth, Users</text></g><!--entity CatalogModule--><g class="entity" data-qualified-name="Server.FeatureModules.CatalogModule" data-source-line="89" id="ent0023"><rect fill="#FFFFFF" height="179.8004" rx="4.6875" ry="4.6875" style="stroke:#000000;stroke-width:3.75;" width="408.6694" x="4711.875" y="1330.7922" /><text fill="#000000" font-family="'Times New Roman'" font-size="41.25" lengthAdjust="spacing" textLength="299.7473" x="4730.625" y="1388.053">Модуль каталога</text><text fill="#000000" font-family="'Times New Roman'" font-size="41.25" lengthAdjust="spacing" textLength="351.7126" x="4730.625" y="1435.4865">Products, Categories,</text><text fill="#000000" font-family="'Times New Roman'" font-size="41.25" lengthAdjust="spacing" textLength="371.1694" x="4730.625" y="1482.9199">Brands, Specifications</text></g><!--entity ShoppingModule--><g class="entity" data-qualified-name="Server.FeatureModules.ShoppingModule" data-source-line="90" id="ent0024"><rect fill="#FFFFFF" height="179.8004" rx="4.6875" ry="4.6875" style="stroke:#000000;stroke-width:3.75;" width="332.2321" x="4750.3125" y="1019.5422" /><text fill="#000000" font-family="'Times New Roman'" font-size="41.25" lengthAdjust="spacing" textLength="294.7321" x="4769.0625" y="1076.803">Модуль покупок</text><text fill="#000000" font-family="'Times New Roman'" font-size="41.25" lengthAdjust="spacing" textLength="239.4635" x="4769.0625" y="1124.2365">Cart, Wishlist,</text><text fill="#000000" font-family="'Times New Roman'" font-size="41.25" lengthAdjust="spacing" textLength="151.203" x="4769.0625" y="1171.6699">Compare</text></g><!--entity OrdersModule--><g class="entity" data-qualified-name="Server.FeatureModules.OrdersModule" data-source-line="91" id="ent0025"><rect fill="#FFFFFF" height="179.8004" rx="4.6875" ry="4.6875" style="stroke:#000000;stroke-width:3.75;" width="486.6376" x="5310.9375" y="1330.7922" /><text fill="#000000" font-family="'Times New Roman'" font-size="41.25" lengthAdjust="spacing" textLength="277.9742" x="5329.6875" y="1388.053">Модуль заказов</text><text fill="#000000" font-family="'Times New Roman'" font-size="41.25" lengthAdjust="spacing" textLength="301.2781" x="5329.6875" y="1435.4865">Orders, Checkout,</text><text fill="#000000" font-family="'Times New Roman'" font-size="41.25" lengthAdjust="spacing" textLength="449.1376" x="5329.6875" y="1482.9199">PromoCodes, Notifications</text></g><!--entity AdminModule--><g class="entity" data-qualified-name="Server.FeatureModules.AdminModule" data-source-line="92" id="ent0026"><rect fill="#FFFFFF" height="132.3669" rx="4.6875" ry="4.6875" style="stroke:#000000;stroke-width:3.75;" width="538.9453" x="5285.625" y="1065.4797" /><text fill="#000000" font-family="'Times New Roman'" font-size="41.25" lengthAdjust="spacing" textLength="501.4453" x="5304.375" y="1122.7405">Модуль администрирования</text><text fill="#000000" font-family="'Times New Roman'" font-size="41.25" lengthAdjust="spacing" textLength="194.8096" x="5304.375" y="1170.174">AdminStats</text></g><!--entity UploadsModule--><g class="entity" data-qualified-name="Server.FeatureModules.UploadsModule" data-source-line="93" id="ent0027"><rect fill="#FFFFFF" height="132.3669" rx="4.6875" ry="4.6875" style="stroke:#000000;stroke-width:3.75;" width="475.4187" x="4678.125" y="1907.3547" /><text fill="#000000" font-family="'Times New Roman'" font-size="41.25" lengthAdjust="spacing" textLength="437.9187" x="4696.875" y="1964.6155">Модуль загрузки файлов</text><text fill="#000000" font-family="'Times New Roman'" font-size="41.25" lengthAdjust="spacing" textLength="137.4866" x="4696.875" y="2012.049">Uploads</text></g><!--entity Buyer--><g class="entity" data-qualified-name="Buyer" data-source-line="58" id="ent0001" transform="translate(340.1517,0)"><ellipse cx="114.8483" cy="678.2922" fill="#FFFFFF" rx="15" ry="15" style="stroke:#000000;stroke-width:0.9375;" /><path d="M114.8483,693.2922 L114.8483,743.9172 M90.4733,708.2922 L139.2233,708.2922 M114.8483,743.9172 L90.4733,772.0422 M114.8483,743.9172 L139.2233,772.0422" fill="none" style="stroke:#000000;stroke-width:0.9375;" /><text fill="#000000" font-family="'Times New Roman'" font-size="41.25" lengthAdjust="spacing" textLength="207.1967" x="11.25" y="813.3655">Покупатель</text></g><!--entity Admin--><g class="entity" data-qualified-name="Admin" data-source-line="59" id="ent0002" transform="translate(-34.451,0)"><ellipse cx="489.451" cy="1023.2922" fill="#FFFFFF" rx="15" ry="15" style="stroke:#000000;stroke-width:0.9375;" /><path d="M489.451,1038.2922 L489.451,1088.9172 M465.076,1053.2922 L513.826,1053.2922 M489.451,1088.9172 L465.076,1117.0422 M489.451,1088.9172 L513.826,1117.0422" fill="none" style="stroke:#000000;stroke-width:0.9375;" /><text fill="#000000" font-family="'Times New Roman'" font-size="41.25" lengthAdjust="spacing" textLength="277.652" x="350.625" y="1158.3655">Администратор</text></g><!--entity Database--><g class="entity" data-qualified-name="Database" data-source-line="100" id="ent0030"><path d="M6343.125,652.0422 C6343.125,633.2922 6471.2238,633.2922 6471.2238,633.2922 C6471.2238,633.2922 6599.3225,633.2922 6599.3225,652.0422 L6599.3225,763.7842 C6599.3225,782.5342 6471.2238,782.5342 6471.2238,782.5342 C6471.2238,782.5342 6343.125,782.5342 6343.125,763.7842 L6343.125,652.0422" fill="#FFFFFF" style="stroke:#000000;stroke-width:3.75;" /><path d="M6343.125,652.0422 C6343.125,670.7922 6471.2238,670.7922 6471.2238,670.7922 C6471.2238,670.7922 6599.3225,670.7922 6599.3225,652.0422" fill="none" style="stroke:#000000;stroke-width:3.75;" /><text fill="#000000" font-family="'Times New Roman'" font-size="41.25" lengthAdjust="spacing" textLength="218.6975" x="6361.875" y="716.803">База данных</text><text fill="#000000" font-family="'Times New Roman'" font-size="41.25" lengthAdjust="spacing" textLength="201.6779" x="6361.875" y="764.2365">PostgreSQL</text></g><!--entity UploadsStorage--><g class="entity" data-qualified-name="UploadsStorage" data-source-line="101" id="ent0031"><path d="M5341.875,2460.4797 L5418.75,2460.4797 A7.0313,7.0313 0 0 1 5423.4375,2465.1672 L5436.5625,2499.8547 L5768.1775,2499.8547 A4.6875,4.6875 0 0 1 5772.865,2504.5422 L5772.865,2621.9092 A4.6875,4.6875 0 0 1 5768.1775,2626.5967 L5341.875,2626.5967 A4.6875,4.6875 0 0 1 5337.1875,2621.9092 L5337.1875,2465.1672 A4.6875,4.6875 0 0 1 5341.875,2460.4797" fill="#FFFFFF" style="stroke:#000000;stroke-width:3.75;" /><line style="stroke:#000000;stroke-width:3.75;" x1="5337.1875" x2="5436.5625" y1="2499.8547" y2="2499.8547" /><text fill="#000000" font-family="'Times New Roman'" font-size="41.25" lengthAdjust="spacing" textLength="379.3469" x="5355.9375" y="2551.4905">Файловое хранилище</text><text fill="#000000" font-family="'Times New Roman'" font-size="41.25" lengthAdjust="spacing" textLength="379.4275" x="5355.9375" y="2598.924">изображений товаров</text></g><!--entity OAuthProviders--><g class="entity" data-qualified-name="OAuthProviders" data-source-line="102" id="ent0032"><path d="M5356.9682,2196.2506 C5364.5084,2185.1716 5373.283,2182.2009 5381.7507,2195.2999 C5390.5984,2179.9661 5399.6573,2178.7442 5411.1322,2192.6609 C5419.8218,2177.9261 5432.4056,2175.6194 5443.1994,2190.3727 C5449.9375,2176.7146 5463.9071,2176.6564 5471.3882,2189.5848 C5478.966,2179.2144 5490.1653,2176.9427 5496.6822,2190.6971 C5508.781,2174.5668 5518.6482,2178.2118 5528.0854,2193.3685 C5536.2229,2177.9955 5544.5922,2177.1885 5555.6741,2190.5407 C5566.4652,2175.6942 5574.9533,2179.8202 5584.3023,2192.0647 C5592.8463,2175.4841 5607.1784,2175.3191 5616.1938,2191.6073 C5626.3537,2179.8485 5637.2163,2178.0893 5644.7273,2194.3088 C5653.2146,2181.8851 5663.5004,2179.7824 5673.8465,2192.1231 C5683.4198,2179.131 5696.6005,2180.7648 5702.8833,2195.5614 C5711.2706,2180.9139 5720.093,2178.9264 5731.8044,2192.1067 C5742.5761,2181.6186 5753.681,2181.0683 5759.9914,2196.887 C5771.1362,2204.9218 5773.4998,2213.0307 5761.9323,2222.7688 C5776.4947,2230.9525 5780.1052,2246.268 5763.042,2255.5232 C5778.6194,2265.3375 5775.1077,2275.5601 5762.289,2284.6399 C5775.0316,2294.7159 5774.37,2305.0161 5761.8553,2314.7281 C5753.5303,2329.6319 5742.2654,2329.5596 5731.9947,2316.8307 C5722.2725,2332.5359 5707.7354,2333.4794 5698.96,2315.8913 C5692.4337,2327.8616 5680.7131,2327.7359 5673.9518,2316.1406 C5667.5568,2330.0099 5655.9165,2332.3805 5646.27,2319.506 C5635.3532,2334.3369 5624.8452,2334.285 5614.6636,2318.741 C5605.2883,2331.4289 5595.1529,2331.2097 5586.3828,2318.078 C5576.6404,2334.8021 5567.4177,2333.3143 5556.0473,2319.7062 C5547.6041,2335.0283 5537.8046,2335.737 5527.6793,2321.3103 C5517.3237,2335.5218 5507.3235,2332.5691 5498.4785,2319.6826 C5487.8757,2332.2258 5479.1124,2328.7673 5471.5886,2316.3637 C5461.6184,2332.9432 5448.3799,2333.6781 5439.1044,2315.7105 C5433.1223,2328.0487 5420.2201,2329.2656 5412.3446,2317.8429 C5403.4684,2328.7852 5391.7874,2330.9949 5384.9656,2315.6992 C5376.2465,2328.3313 5365.6219,2328.4323 5357.5077,2315.0604 C5340.983,2308.3833 5337.7656,2297.8631 5351.668,2285.2296 C5338.4851,2274.6992 5335.3256,2265.1293 5351.8885,2254.8146 C5336.7276,2247.3466 5337.3055,2236.123 5349.7851,2226.5948 C5338.053,2213.0056 5342.3696,2203.6067 5356.9682,2196.2506" fill="#FFFFFF" style="stroke:#000000;stroke-width:3.75;" /><text fill="#000000" font-family="'Times New Roman'" font-size="41.25" lengthAdjust="spacing" textLength="317.2504" x="5365.3125" y="2243.9905">Внешние сервисы</text><text fill="#000000" font-family="'Times New Roman'" font-size="41.25" lengthAdjust="spacing" textLength="378.078" x="5365.3125" y="2291.424">Google OAuth, VK ID</text></g><!--link Buyer to Admin--><!--link Buyer to BuyerAccess--><!--link Buyer to BuyerAccess--><g class="link" data-entity-1="ent0001" data-entity-2="ent0004" data-link-type="dependency" data-source-line="107" id="lnk36"><path d="M560.2954,756.1047 C650,756.1047 720,756.1047 791.8313,756.1047" fill="none" id="Buyer-to-BuyerAccess" style="stroke:#000000;stroke-width:3.75;" /><polygon fill="#000000" points="801.2063,756.1047,784.3313,748.6047,791.8313,756.1047,784.3313,763.6047,801.2063,756.1047" style="stroke:#000000;stroke-width:3.75;stroke-linejoin:miter;stroke-miterlimit:10;" /></g><!--link Admin to AdminAccess--><!--link Admin to AdminAccess--><g class="link" data-entity-1="ent0002" data-entity-2="ent0005" data-link-type="dependency" data-source-line="108" id="lnk37"><path d="M594.0303,1101.1047 C650,1101.1047 700,1101.1047 749.6438,1101.1047" fill="none" id="Admin-to-AdminAccess" style="stroke:#000000;stroke-width:3.75;" /><polygon fill="#000000" points="759.0188,1101.1047,742.1438,1093.6047,749.6438,1101.1047,742.1438,1108.6047,759.0188,1101.1047" style="stroke:#000000;stroke-width:3.75;stroke-linejoin:miter;stroke-miterlimit:10;" /></g><!--link BuyerAccess to Client--><g class="link" data-entity-1="ent0004" data-entity-2="ent0006" data-link-type="dependency" data-source-line="109" id="lnk38"><path d="M971.25,784.7172 C971.25,829.1547 971.25,892.361 971.25,892.361 C971.25,892.361 1143,892.361 1302.5438,892.361" fill="none" id="BuyerAccess-to-Client" style="stroke:#000000;stroke-width:3.75;" /><polygon fill="#000000" points="1311.9188,892.361,1295.0438,884.861,1302.5438,892.361,1295.0438,899.861,1311.9188,892.361" style="stroke:#000000;stroke-width:3.75;stroke-linejoin:miter;stroke-miterlimit:10;" /></g><!--link AdminAccess to Client--><g class="link" data-entity-1="ent0005" data-entity-2="ent0006" data-link-type="dependency" data-source-line="110" id="lnk39"><path d="M1160.625,1044.3672 C1160.625,999.9297 1160.625,936.7235 1160.625,936.7235 C1160.625,936.7235 1221.7875,936.7235 1302.7875,936.7235" fill="none" id="AdminAccess-to-Client" style="stroke:#000000;stroke-width:3.75;" /><polygon fill="#000000" points="1312.1625,936.7235,1295.2875,929.2235,1302.7875,936.7235,1295.2875,944.2235,1312.1625,936.7235" style="stroke:#000000;stroke-width:3.75;stroke-linejoin:miter;stroke-miterlimit:10;" /></g><!--link Client to Router--><g class="link" data-entity-1="ent0006" data-entity-2="ent0016" data-link-type="dependency" data-source-line="112" id="lnk40"><path d="M1787.0625,914.5422 C1831.2188,914.5422 1867.0313,914.5422 1908.3,914.5422" fill="none" id="Client-to-Router" style="stroke:#000000;stroke-width:3.75;" /><polygon fill="#000000" points="1917.675,914.5422,1900.8,907.0422,1908.3,914.5422,1900.8,922.0422,1917.675,914.5422" style="stroke:#000000;stroke-width:3.75;stroke-linejoin:miter;stroke-miterlimit:10;" /></g><!--link Router to PublicUi--><g class="link" data-entity-1="ent0016" data-entity-2="ent0007" data-link-type="dependency" data-source-line="113" id="lnk41"><path d="M2242.8188,967.9797 C2403.9375,967.9797 2626.875,967.9797 2626.875,967.9797 C2626.875,967.9797 2626.875,973.8637 2626.875,982.7817 C2626.875,987.2407 2626.875,992.4582 2626.875,998.0779 C2626.875,998.7803 2626.875,999.4891 2626.875,1000.2034 C2626.875,1000.382 2626.875,991.186 2626.875,991.3652" fill="none" id="Router-to-PublicUi" style="stroke:#000000;stroke-width:3.75;" /><polygon fill="#000000" points="2626.875,1000.7402,2634.375,983.8652,2626.875,991.3652,2619.375,983.8652,2626.875,1000.7402" style="stroke:#000000;stroke-width:3.75;stroke-linejoin:miter;stroke-miterlimit:10;" /></g><!--link Router to AdminUi--><g class="link" data-entity-1="ent0016" data-entity-2="ent0012" data-link-type="dependency" data-source-line="114" id="lnk42"><path d="M2243.0063,901.4172 C2403.5063,901.4172 2625,901.4172 2625,901.4172 C2625,901.4172 2625,869.4813 2625,836.0477 C2625,819.3309 2625,802.2397 2625,788.5789 C2625,785.1636 2625,781.9628 2625,779.0359 C2625,778.3041 2625,777.5895 2625,776.8929 C2625,776.5446 2625,785.5759 2625,785.2367" fill="none" id="Router-to-AdminUi" style="stroke:#000000;stroke-width:3.75;" /><polygon fill="#000000" points="2625,775.8617,2617.5,792.7367,2625,785.2367,2632.5,792.7367,2625,775.8617" style="stroke:#000000;stroke-width:3.75;stroke-linejoin:miter;stroke-miterlimit:10;" /></g><!--link PublicUi to State--><g class="link" data-entity-1="ent0007" data-entity-2="ent0017" data-link-type="dependency" data-source-line="115" id="lnk43"><path d="M3105,1000.6119 C3105,1000.2114 3105,999.8103 3105,999.4086 C3105,997.8017 3105,996.1853 3105,994.5617 C3105,981.5723 3105,977.4907 3105,964.6985" fill="none" id="PublicUi-to-State" style="stroke:#000000;stroke-width:3.75;" /><polygon fill="#000000" points="3105,955.3235,3097.5,972.1985,3105,964.6985,3112.5,972.1985,3105,955.3235" style="stroke:#000000;stroke-width:3.75;stroke-linejoin:miter;stroke-miterlimit:10;" /></g><!--link AdminUi to State--><g class="link" data-entity-1="ent0012" data-entity-2="ent0017" data-link-type="dependency" data-source-line="116" id="lnk44"><path d="M3288.75,775.8732 C3288.75,777.1384 3288.75,778.47 3288.75,779.861 C3288.75,790.9891 3288.75,796.5485 3288.75,811.7735" fill="none" id="AdminUi-to-State" style="stroke:#000000;stroke-width:3.75;" /><polygon fill="#000000" points="3288.75,821.1485,3296.25,804.2735,3288.75,811.7735,3281.25,804.2735,3288.75,821.1485" style="stroke:#000000;stroke-width:3.75;stroke-linejoin:miter;stroke-miterlimit:10;" /></g><!--link State to ApiClient--><g class="link" data-entity-1="ent0017" data-entity-2="ent0018" data-link-type="dependency" data-source-line="117" id="lnk45"><path d="M3494.2687,888.2922 C3564.0938,888.2922 3630.3938,888.2922 3691.2563,888.2922" fill="none" id="State-to-ApiClient" style="stroke:#000000;stroke-width:3.75;" /><polygon fill="#000000" points="3700.6313,888.2922,3683.7563,880.7922,3691.2563,888.2922,3683.7563,895.7922,3700.6313,888.2922" style="stroke:#000000;stroke-width:3.75;stroke-linejoin:miter;stroke-miterlimit:10;" /></g><!--link ApiClient to RestApi--><g class="link" data-entity-1="ent0018" data-entity-2="ent0020" data-link-type="dependency" data-source-line="119" id="lnk46"><path d="M3939.8063,888.2922 C3979.4813,888.2922 4015.7813,888.2922 4061.1937,888.2922" fill="none" id="ApiClient-to-RestApi" style="stroke:#000000;stroke-width:3.75;" /><polygon fill="#000000" points="4070.5687,888.2922,4053.6937,880.7922,4061.1937,888.2922,4053.6937,895.7922,4070.5687,888.2922" style="stroke:#000000;stroke-width:3.75;stroke-linejoin:miter;stroke-miterlimit:10;" /></g><!--link RestApi to FeatureModules--><g class="link" data-entity-1="ent0020" data-entity-2="ent0021" data-link-type="dependency" data-source-line="121" id="lnk47"><path d="M4547.1,888.2922 C4567.3781,888.2922 4588.0644,888.2922 4608.7736,888.2922 C4613.9509,888.2922 4619.1296,888.2922 4624.3038,888.2922 C4626.8909,888.2922 4620.1018,888.2922 4622.6859,888.2922" fill="none" id="RestApi-to-FeatureModules" style="stroke:#000000;stroke-width:3.75;" /><polygon fill="#000000" points="4632.0609,888.2922,4615.1859,880.7922,4622.6859,888.2922,4615.1859,895.7922,4632.0609,888.2922" style="stroke:#000000;stroke-width:3.75;stroke-linejoin:miter;stroke-miterlimit:10;" /></g><!--link AuthModule to OAuthProviders--><g class="link" data-entity-1="ent0022" data-entity-2="ent0032" data-link-type="dependency" data-source-line="123" id="lnk48"><path d="M5120.3063,1709.5422 C5307.4313,1709.5422 5555.625,1709.5422 5555.625,1709.5422 C5555.625,1709.5422 5555.625,2018.0922 5555.625,2167.736" fill="none" id="AuthModule-to-OAuthProviders" style="stroke:#000000;stroke-width:3.75;" /><polygon fill="#000000" points="5555.625,2177.111,5563.125,2160.236,5555.625,2167.736,5548.125,2160.236,5555.625,2177.111" style="stroke:#000000;stroke-width:3.75;stroke-linejoin:miter;stroke-miterlimit:10;" /><text fill="#000000" font-family="'Times New Roman'" font-size="41.25" lengthAdjust="spacing" textLength="112.2894" x="5280" y="1698">OAuth</text></g><!--link FeatureModules to DataAccess--><g class="link" data-entity-1="ent0021" data-entity-2="ent0028" data-link-type="dependency" data-source-line="124" id="lnk49"><path d="M4916.25,820.4423 C4916.25,820.2042 4916.25,819.9661 4916.25,819.7282 C4916.25,789.2688 4916.25,760.1735 4916.25,760.1735 C4916.25,708.2922 5133.4313,708.2922 5316.6188,708.2922" fill="none" id="FeatureModules-to-DataAccess" style="stroke:#000000;stroke-width:3.75;" /><polygon fill="#000000" points="5325.9938,708.2922,5309.1188,700.7922,5316.6188,708.2922,5309.1188,715.7922,5325.9938,708.2922" style="stroke:#000000;stroke-width:3.75;stroke-linejoin:miter;stroke-miterlimit:10;" /></g><!--link DataAccess to PrismaOrm--><g class="link" data-entity-1="ent0028" data-entity-2="ent0029" data-link-type="dependency" data-source-line="125" id="lnk50"><path d="M5782.7625,708.2922 C5841.45,708.2922 5893.2188,708.2922 5944.9125,708.2922" fill="none" id="DataAccess-to-PrismaOrm" style="stroke:#000000;stroke-width:3.75;" /><polygon fill="#000000" points="5954.2875,708.2922,5937.4125,700.7922,5944.9125,708.2922,5937.4125,715.7922,5954.2875,708.2922" style="stroke:#000000;stroke-width:3.75;stroke-linejoin:miter;stroke-miterlimit:10;" /></g><!--link UploadsModule to UploadsStorage--><g class="link" data-entity-1="ent0027" data-entity-2="ent0031" data-link-type="dependency" data-source-line="126" id="lnk51"><path d="M4916.25,2040.986 C4916.25,2191.661 4916.25,2543.9172 4916.25,2543.9172 C4916.25,2543.9172 5142.4313,2543.9172 5327.3813,2543.9172" fill="none" id="UploadsModule-to-UploadsStorage" style="stroke:#000000;stroke-width:3.75;" /><polygon fill="#000000" points="5336.7563,2543.9172,5319.8813,2536.4172,5327.3813,2543.9172,5319.8813,2551.4172,5336.7563,2543.9172" style="stroke:#000000;stroke-width:3.75;stroke-linejoin:miter;stroke-miterlimit:10;" /></g><!--link PrismaOrm to Database--><g class="link" data-entity-1="ent0029" data-entity-2="ent0030" data-link-type="dependency" data-source-line="128" id="lnk52"><path d="M6212.1375,708.2922 C6254.0625,708.2922 6291.225,708.2922 6333.1688,708.2922" fill="none" id="PrismaOrm-to-Database" style="stroke:#000000;stroke-width:3.75;" /><polygon fill="#000000" points="6342.5438,708.2922,6325.6688,700.7922,6333.1688,708.2922,6325.6688,715.7922,6342.5438,708.2922" style="stroke:#000000;stroke-width:3.75;stroke-linejoin:miter;stroke-miterlimit:10;" /></g><?plantuml-src lLVTRXj55BxVfnY52owmKIaN82wGqfH2WIPfd1O9pCLsTsAFijwnTiUD0ghKj8GMjLBukIkLgWWUmFq9TTB4lCBi6_6TCxlhjRs12Acr5E_wp3dV-JzpyhQm-zcTx7PsrnxXUJUxRK_iCDiJsKwsQm_iiHqA-mmlJvlsRnoEx2ixjd-1S697O0FX9BjZ3rZk8BlJ90dx77ylwOYadsOFm346ojWU2cRU9MbxP4VlUbwwgUA-d_WzSSCFDZk97iJXaevq8jwwn9yAHzhrGxsbuexOyADKLax2lXBlVNYkGebKBCrsNmgTcAwkiieDVn2PIpesotvFYeLrrPEfM9PROatt_7YXdhUblfFY_FdAeL4cacU2AJaPvFsgcOj9ehToVy_nP_PmlQk2pLYcgJW_UtG5LByZ5oFLYNioDYB0bqmgR7t451mjinr9aSZ0-74dgWOkqBs-ZY5sEakiGvdAllYWQbhYnvlpn49QVEy9SU6KVE949w5Cfhqkg5LtXQ2WJVFTgZF-3UaBVUFVyDCtvPuV69py7rt_4RP83y8tvCE6ZY3nMfLvt5wlUv1vNYGtZ31Q9AhJDI9KLErAnvxdyhHWdm3n20Ry3SM0ig-oXml2JyM5mJQQik3wsRu0zeZrxf39p3tERZFlOjXJW9nqqeBzXLdkmX1O9u0-9cJyf9bQQDfpcZ0KqZpSa-POiByY1cFxmWbFcxWtCN4n213dqqI7fzbjXnFBQo4U8TOZYZIaTZ3sn_P0p2V17hJZDOaeYNV4TMKa7kkOtwqWKNt36fOY1K0FwDNmFAcDnqFMDCADCybizWEE3hCT1biTt8XKS4rnhARj_Grc3O5L5X0xoux_c3lxcUx9LGpMETb7RC6G7NiEtG9M3A6Q8dMFtaL-6GxBm2rXgaIwGt1f3Hv5kBnCWJU66qGxXeuyS08CGmAdfyFioc1J3qmzwE_mv1wYye32Gs9F6Hzbxp8P1EZIKlRMRCJhAtX44NEGzH7d0gaD-1zS3HJoYaj7rKZYxxWQBDScPyAfX8QiPfGLcYpr6BNbH74VSIKuL_cDDXWNxMlf18sZLGLypFc_JwE9XM07oWWpfoZtDUH99WpaNcS0zf7k7IwWlSAdaNEBlAMp1mNKrO5CjXlYwq6AP8KCsJA-aTE8YwkNcx2zR4gNdRxA--lMzFZPvw7uB1-Df_VkiapDvwtvhct9vERyI5hxfBKkO4WxXZEjBR_JaKaJTUN6qx4ph8YKYmtmOUHiCVu9zXC8WH729rGmo1uL8Wmzfj45XbTvtYz9tmmIUKM7WmZBsdmbFYu4ieSqyPxb4wxCcXsruyM1wJOuvwcB77uxn7-7coxeOJjUJI0LcBH1LIqxEb4oRRJZ2zYjGX1RVHce3HNuTCkarUe_YxR9fCUp7I_vYMc8hrJQZLHge6K9WduYNOgwkj_7MdqMt4axeJ_QCNSIUP0Fd0QxrTDBj3GsnB8sCouuWRDechzmHbJlr9NkqaOggEcemjF9X3ch4yzvMNX9juJ0d1hQGyuCVBhMZxGVEiZylGITQ-zzbiBGU-7Qr5sko3PHo50gnMEAYafxFZM32bpKBoAPTVUbunGhQrVSHSK_Lv8UDMQvWM8jS3EjeYRRXHgTcauYMrU_B7KGlvVlOUYNYQVSpDbkSRbHbsG_KIjplO_ndnkT52r-MBsvyAo6fuNLXcv3jrbYQU3Rv7u-hd0Lkn4oShFgKwsfTrTS8rt_Gbo-w4g32AYUcufAnFDuAH7DRxeg36NyBVxrYvlvWZHpn2jPSsgBORuvZkgIacCqFwwJ0tMErxtpMJugAonLikUUJCf7kdimfTWyghJyRlJAhOI8RdGNr-Q4mjzEh1pQNldgj1R3CdzXulJqWqWvkFXuElpY8qVmPcOcSLOgT_BgV2kBTQfn-6ocLhoIjyJaIlq7?></g></svg>
